<?xml version="1.0" encoding="UTF-8"?>
<svg width="30pt" height="30pt" version="1.1" viewBox="0 0 700 500" xmlns="http://www.w3.org/2000/svg" fill='#666'>
 <path d="m547.75 199.68c-2.3867-11.891-8.8125-22.59-18.191-30.277s-21.133-11.895-33.258-11.898h-6.3008c0-50.016-26.684-96.234-70-121.24-43.316-25.012-96.684-25.012-140 0-43.316 25.008-70 71.227-70 121.24h-6.3008c-12.125 0.003906-23.879 4.2109-33.258 11.898s-15.805 18.387-18.191 30.277l-64.75 321.82c-1.0156 5.1484 0.33594 10.48 3.6758 14.523 3.375 4.1641 8.4688 6.5469 13.824 6.4766h490c5.2344-0.035156 10.176-2.4102 13.477-6.4766 3.4648-3.9844 4.9414-9.3242 4.0234-14.523zm-197.75-147.18c27.848 0 54.555 11.062 74.246 30.754s30.754 46.398 30.754 74.246h-210c0-27.848 11.062-54.555 30.754-74.246s46.398-30.754 74.246-30.754zm-223.65 455 60.199-301c0.81641-4.0117 3.0156-7.6094 6.2148-10.168 3.1953-2.5586 7.1914-3.9141 11.285-3.832h5.9492v87.5c0 6.2539 3.3359 12.031 8.75 15.156s12.086 3.125 17.5 0 8.75-8.9023 8.75-15.156v-87.5h210v87.5c0 6.2539 3.3359 12.031 8.75 15.156s12.086 3.125 17.5 0 8.75-8.9023 8.75-15.156v-87.5h6.3008c4.0938-0.082031 8.0859 1.2734 11.285 3.832 3.1953 2.5586 5.3945 6.1562 6.2148 10.168l59.848 301z"/>
</svg>
