<?xml version="1.0" encoding="UTF-8"?>
<svg width="70pt" height="50pt" version="1.1" viewBox="0 0 700 500" xmlns="http://www.w3.org/2000/svg" xmlns:xlink="http://www.w3.org/1999/xlink" fill="#f86250">
 <g>
  <path d="m318.96 218.71c1.668-4.2539 6.4688-6.3516 10.723-4.6836l56.262 22.062c4.25 1.668 6.3516 6.4648 4.6797 10.723-1.2773 3.2617-4.4023 5.2539-7.6992 5.2539-1.0039 0-2.0234-0.18359-3.0156-0.57422l-56.262-22.062c-4.2617-1.668-6.3555-6.4688-4.6875-10.719zm299.36 101.08c0.57422 21.016-9.1484 25.316-23.867 31.832-1.6641 0.73438-3.4297 1.5195-5.3125 2.3789-20.625 9.4258-51.695 16.84-89.867 21.426-39.742 4.7812-88.043 7.9766-90.27 8.1211l-12.867 1.1445c-1.6836 0.14844-3.3555-0.39453-4.6289-1.5039-0.64453-0.55859-1.1484-1.2344-1.5117-1.9805l-7.4414 3.2695c-0.79688 0.35547-1.6523 0.52734-2.5 0.52734-1.1367 0-2.2773-0.3125-3.2773-0.93359-1.1875-0.73828-2.0742-1.8477-2.5469-3.1211l-9.8008 3.1758c-1.8438 0.60156-3.8555 0.30078-5.4453-0.79297-1.0078-0.69922-1.7773-1.6758-2.2227-2.7812l-10.348 3.5469c-1.8984 0.65234-3.9883 0.34766-5.6172-0.8125-1.0781-0.77344-1.8633-1.8516-2.2773-3.0703l-8.7734 3.0195c-1.8164 0.62109-3.8281 0.37109-5.4336-0.68359-1.6055-1.0586-2.6328-2.8047-2.7734-4.7266l-0.039063-0.53125-13.609 3.1797c-0.84766 0.19922-1.7344 0.21484-2.5938 0.046876l-10.188-1.9766c-0.15234 1.8945-1.168 3.625-2.7656 4.6758-1.668 1.1055-3.7695 1.332-5.6406 0.61719l-7.7422-2.9688c-0.45703 0.89453-1.1328 1.6758-1.9805 2.2656-1.668 1.1602-3.8008 1.4336-5.7031 0.72266l-10.566-3.918c-0.44141 0.92578-1.1133 1.7461-1.9688 2.3594-1.5391 1.1133-3.5 1.457-5.3281 0.94141l-9.75-2.7656c-0.40234 0.83594-0.99609 1.5938-1.75 2.1797-1.5742 1.2422-3.6484 1.6445-5.5703 1.0898l-10.715-3.1055c-0.45312 0.82031-1.0938 1.5469-1.8828 2.0977-1.6406 1.1406-3.7266 1.4336-5.6133 0.76562l-10.438-3.668c-0.43359 0.60547-0.97266 1.1289-1.6094 1.5469-1.6094 1.0742-3.625 1.3281-5.4492 0.69922l-8.8594-3.0469c-0.40234 0.57422-0.90625 1.082-1.4883 1.4961-1.543 1.0898-3.5078 1.418-5.3242 0.88672l-11.082-3.2422c-0.089844 0.078125-0.19141 0.15234-0.28906 0.22266-1.5977 1.168-3.6523 1.5039-5.5391 0.91016l-9.5508-3.0195c-0.13281 0.11719-0.27344 0.22656-0.41797 0.32813-1.6133 1.168-3.6836 1.4883-5.5742 0.87109l-10.562-3.4688c-0.26172 0.24219-0.54297 0.46875-0.84375 0.67578-1.5938 1.0508-3.582 1.3203-5.3945 0.71094l-41.043-13.68c-2.9844-0.99609-4.7539-4.0742-4.1094-7.1523l6.6523-31.992c-4.9453-7.8789-17.844-33.559-6.6094-73.387 1.293-4.5781 2.5352-9.0391 3.7383-13.367 11.773-42.234 18.879-67.73 32.863-71.926 7.832-2.3477 18.57 0.49219 22.98 9.3164 9.543 19.082 21.414 42.824 42.383 47.941 10.812 2.6367 23.625 0.10156 38.234-7.5273-2.9141-1.2383-6.25-2.7695-9.707-4.5664-14.41-7.5078-23.531-15.855-27.109-24.812-2.707-6.7734-2.1914-13.898 1.4844-20.609 14.199-25.898 31.191-37.926 34.234-39.938 0.73438-0.60547 2.125-1.6484 3.9453-2.4492 4.0195-1.7695 8.1367-1.5508 11.594 0.61328 1.7617 1.0977 19.625 11.969 50.293 30.609 12.824 7.7969 24.93 15.148 31.875 19.367 0.29297-2.2617 1.8203-4.2734 4.1211-5.0703 3.2383-1.1211 6.7734 0.59766 7.8906 3.8359l2.9141 8.4297c3.5391 1.3828 6.9258 2.9766 10.199 4.6914 0.72656-1.1797 1.8516-2.1289 3.2656-2.6172 3.2344-1.1211 6.7734 0.59766 7.8906 3.8359l2.2578 6.5234c0.13281 0.082032 0.26562 0.16016 0.39844 0.24609 3.5078 2.1289 6.8594 4.1562 10.25 6.0312 0.45703-2.0234 1.918-3.7812 4.0234-4.5078 3.2422-1.1172 6.7773 0.59766 7.8945 3.8398l2.8477 8.2422c2.5781 1.2734 5.3398 2.6172 8.2539 4.0156-0.13281-2.6836 1.4961-5.25 4.168-6.168 3.2422-1.1211 6.7773 0.59766 7.8945 3.8398l3.3086 9.5664c3.1719 1.4688 6.4453 2.9648 9.8008 4.4883-0.47266-2.9297 1.1953-5.8633 4.0977-6.8633 3.2344-1.1211 6.7695 0.59766 7.8828 3.8398l3.4141 9.875c4.1055 1.7969 8.2852 3.6016 12.496 5.3945 0.625-1.6602 1.9648-3.0391 3.7773-3.6641 3.2383-1.1211 6.7695 0.59375 7.8906 3.8359l1.8945 5.4922c32.887 13.496 65.879 25.156 84.168 26.957 40.93 4.0352 54.598 18.344 56.023 19.961l-0.019531 0.015624c0.6875 0.75 1.3398 1.5898 1.9414 2.5312 0.60547 0.25781 1.207 0.56641 1.7969 0.94531 7.4688 4.8359 7.7773 16.117 8.168 30.402zm-329.33-126.8c7.3945 8.9844 16.352 21.754 17.176 31.672 0.45703 5.4688 7.0977 8.0273 20.281 13.926 7.2188 3.2305 21.539 9.4297 25.648 11.02 20.141 7.7891 29.723 12.914 42.055 8.8047 18.844-6.2773 28.863-8.0859 45.703 0.98438 4.5391 2.4414 7.9766 5.3203 11.008 7.8633 7.3672 6.1719 12.227 10.246 29.902 6.0898 10.652-2.5078 23.703-3.0156 36.945-2.2344-14.098-4.3164-30.012-10.156-46.082-16.566l1.4414 4.1602c1.1172 3.2383-0.59766 6.7734-3.8398 7.8906-0.66797 0.23047-1.3516 0.33984-2.0234 0.33984-2.5703 0-4.9766-1.6133-5.8672-4.1797l-4.9883-14.457c-3.5898-1.5-7.1719-3.0117-10.703-4.5273 0.78125 3.0898-0.92188 6.3125-3.9922 7.375-0.67188 0.23438-1.3555 0.33984-2.0234 0.33984-2.5742 0-4.9805-1.6133-5.8711-4.1797l-3.5469-10.266c-3.2969-1.4609-6.5273-2.9102-9.6797-4.3359 0.79688 3.1016-0.89453 6.3438-3.9805 7.4102-0.66797 0.23047-1.3555 0.33984-2.0234 0.33984-2.5742 0-4.9766-1.6133-5.8672-4.1836l-3.707-10.734c-2.7422-1.2812-5.3789-2.5234-7.8867-3.7188l0.16406 0.47656c1.1172 3.2383-0.60547 6.7734-3.8398 7.8906-0.66797 0.23438-1.3516 0.33984-2.0195 0.33984-2.5742 0-4.9805-1.6133-5.8711-4.1797l-4.2148-12.199c-3.2578-1.6289-6.0312-3.0391-8.1797-4.1719-0.3125-0.16406-0.625-0.33984-0.94531-0.51172l0.24219 0.69531c1.1211 3.2383-0.60156 6.7734-3.8359 7.8906-0.66797 0.23047-1.3516 0.33984-2.0234 0.33984-2.5703 0-4.9805-1.6133-5.8711-4.1797l-4.9844-14.438c-2.5547-1.5273-5.1094-3.0156-7.707-4.4102l0.15625 0.45312c1.1172 3.2383-0.59766 6.7734-3.8359 7.8906-0.67188 0.23047-1.3516 0.34375-2.0273 0.34375-2.5703 0-4.9766-1.6133-5.8672-4.1797l-3.8047-11.02c-11.953-3.4766-25.668-3.4492-43.613 4.1367zm64.07 69.148-21.895-9.0391v0.050781l-4.0781 0.11328 0.11328 4.0742-4.0742 0.10938 0.10938 4.0742-4.0742 0.11328 0.11328 4.0742-4.0742 0.10938 0.10938 4.0781-4.0742 0.10938 0.10937 4.0742-4.0742 0.11328 0.11328 4.0742-4.0742 0.10937 0.10938 4.0742-4.0742 0.11328 0.11328 4.0742-4.0742 0.11328 0.10938 4.0742-4.0742 0.11328 0.11328 4.0781-4.0742 0.10937 0.10938 4.0781-4.0742 0.11328 0.11328 4.0742-4.0742 0.11328 0.11328 4.0781-4.0742 0.10938 0.10938 4.0742-4.0742 0.11719 0.11328 4.0742-4.0742 0.11328 0.10938 4.0781-4.0742 0.10938 0.11328 4.0781-4.0781 0.10938 0.10938 4.0781-4.0742 0.11328 0.039063 1.3711c7.0703 0.5625 14.102 1.1836 20.992 1.9219l8.9023 1.2539-0.039062-1.3984 4.0742-0.11328-0.10937-4.0781 4.0742-0.10937-0.11328-4.0781 4.0742-0.11328-0.10938-4.0742 4.0742-0.11328-0.11328-4.0781 4.0742-0.10938-0.10938-4.0742 4.0742-0.11719-0.11328-4.0742 4.0781-0.11328-0.11328-4.0742 4.0742-0.11328-0.11328-4.0781 4.0742-0.10938-0.11328-4.0781 4.0742-0.11328-0.11328-4.0742 4.0781-0.11328-0.11328-4.0781 4.0742-0.11328-0.10938-4.0742 4.0742-0.10938-0.11328-4.0781 4.0742-0.10938-0.10938-4.0781 4.0781-0.10938-0.11328-4.0742 4.0781-0.11328-0.11328-4.0742 4.0781-0.10938zm-56.078-85.031c3.957-1.0977 7.7344-1.8594 11.348-2.332-1.8555-1.1289-3.8047-2.3125-5.8242-3.5391-1.7031 1.7227-3.5586 3.6953-5.5234 5.8711zm-5.5508-12.602c-5.6602 5.793-12.867 14.129-20.242 23.422 3.9766-2.1797 7.8008-4.0703 11.477-5.6836 4.8516-5.8203 9.3828-10.922 13.305-14.98-1.4961-0.90625-3.0078-1.8242-4.5391-2.7578zm-11.07-6.7266c-6.6953 6.9062-15.332 17.09-23.957 28.301-4.9844 6.4805-9.6875 12.949-13.75 18.887 0.57031 0.19922 1.0898 0.375 1.5859 0.53516 1.5156-1.0312 3.0508-2.1055 4.5977-3.2305 1.5547-1.1289 3.0781-2.207 4.5938-3.2578 2.4414-3.3594 4.9922-6.7812 7.6562-10.242 8.5664-11.137 17.035-21.148 23.82-28.227-1.5078-0.91797-3.0234-1.8398-4.5469-2.7656zm-75.238 20.762c4.0586-5.9062 8.7109-12.297 13.625-18.684 7.6758-9.9766 15.449-19.258 21.934-26.223-0.82812-0.50781-1.4531-0.89062-1.8125-1.1133-0.41797 0.13281-1.0625 0.55469-1.1875 0.67578-0.29688 0.28125-0.62109 0.53125-0.96875 0.74609-0.14844 0.097656-16.715 10.758-30.363 35.664-1.707 3.1094-2.1016 5.9766-1.2266 8.9336zm8.168 10.793c4.5664-6.8438 10.105-14.527 16.047-22.25 7.9297-10.305 15.828-19.719 22.391-26.719-1.6367-0.99609-3.1602-1.9258-4.5508-2.7734-6.5117 6.8867-14.559 16.453-22.523 26.805-5.6289 7.3164-10.914 14.633-15.305 21.168 1.1562 1.2969 2.4883 2.5547 3.9414 3.7695zm10.625 7.1602c4.5586-6.8242 10.078-14.484 16.008-22.184 8.1172-10.551 16.207-20.168 22.863-27.223-1.5586-0.94922-3.0781-1.8672-4.5508-2.7656-6.582 6.9023-14.75 16.586-22.996 27.301-5.9219 7.6953-11.422 15.34-15.926 22.102 1.4922 0.96875 3.0352 1.8945 4.6016 2.7695zm11.621 5.6914c4.3555-6.4336 9.5039-13.543 14.969-20.645 8.2852-10.766 16.621-20.645 23.344-27.723-1.5312-0.92969-3.0508-1.8555-4.5547-2.7695-6.6602 6.9336-15.035 16.84-23.469 27.801-5.6328 7.3203-10.879 14.582-15.25 21.09 1.6992 0.81641 3.3711 1.5664 4.9609 2.2461zm-125.84 24.781c16.703-3.418 31.441 3.457 42.758 8.7461 1.2617 0.58594 2.4844 1.1562 3.668 1.6914 9.0391 4.0938 18.617 2.1758 28.566-5.6836-23.383-8.4922-36.141-34-45.617-52.953-1.3594-2.7227-5.5156-3.8203-8.3164-2.9805-1.0117 0.30078-4.7578 2.4492-10.434 17.301-0.011719 0.027344-0.023437 0.058594-0.03125 0.085938-3.1602 8.4492-2.3633 5.2617-9.1445 28.691-0.48047 1.6719-0.96484 3.3711-1.4492 5.1016zm-1.0078 90.48c1.1523 0.76562 8.1406 4.5664 35.637 6.6484 10.453 0.79297 24.16 1.3594 40.035 2.0156 9.2461 0.38281 19 0.78516 29.004 1.2656l4.8281 0.28906-0.035156-1.2109 4.0742-0.11328-0.11328-4.0781 4.0742-0.10938-0.10938-4.0781 4.0742-0.11328-0.10938-4.0781 4.0742-0.10938-0.11328-4.0742 4.0742-0.11719-0.10938-4.0742 4.0742-0.11328-0.11328-4.0781 4.0742-0.10938-0.10938-4.0742 4.0742-0.11328-0.11328-4.0781 4.0781-0.11328-0.10938-4.0742 4.0742-0.11328-0.11328-4.0781 4.0742-0.10937-0.11328-4.0742 4.0742-0.11328-0.11328-4.0742 4.0742-0.11328-0.11328-4.0742 4.0742-0.11328-0.10937-4.0742 4.0742-0.11328-0.11328-4.0742 4.0742-0.10938-0.10938-4.0781 4.0742-0.10938-0.11328-4.0742 4.0742-0.11328-0.10938-4.0742 4.0742-0.10938-0.11328-4.0742 4.0742-0.10938-0.10938-4.0742 4.0742-0.11328-0.058594-2.0938c-4.9961-3.5234-7.2891-10.219-7.6719-14.797-0.46484-5.5742-6.6484-15.801-16.309-27.109-6.5664 3.5977-13.656 8.125-21.359 13.727-21.195 15.414-39.691 22.762-56.195 22.281-11.148 11.406-23.012 17.289-34.555 17.289-4.8789 0-9.6953-1.0469-14.379-3.168-1.2266-0.55469-2.4922-1.1445-3.8008-1.7539-12.312-5.75-26.195-12.227-41.477-5.8047-1.0391 3.7148-2.0977 7.5195-3.1992 11.414-11.359 40.418 5.0234 63.293 6.2031 64.871zm227.69 36.992c-6.5898-1.3477-14.234-2.8906-23.105-4.6484-37.887-7.5078-88.645-9.5977-129.43-11.281-15.988-0.66016-29.793-1.2305-40.461-2.0391-18.051-1.3672-28.766-3.5273-35.211-5.7227l-3.0234 14.527c8.9922 3.1133 31.848 7.7109 71.312 8.2344 38.781 0.50781 113.82 0.79297 159.92 0.92969zm41.148-3.7148c3.3789-3.9609 7.2383-8.6016 11.637-14.023 21.227-26.203 50.73-27.484 91.566-29.258 2.9375-0.125 5.9336-0.25781 9-0.40234 31.598-1.4688 63.289-6.8008 84.023-11.625-0.61328-0.28906-1.2227-0.57422-1.8516-0.85547-17.707-7.7461-61.953-15.348-88.305-9.1445-23.723 5.5781-32.355-1.6562-40.707-8.6602-0.96484-0.8125-1.9258-1.6055-2.8906-2.375 0 0-14.766-16.609-41.93-4.207-5.293 2.418-9.3125 3.8828-15.371 3l0.054687 2.0586-4.0742 0.11328 0.11328 4.0742-4.0742 0.10938 0.10938 4.0781-4.0742 0.11328 0.10938 4.0742-4.0742 0.11328 0.11328 4.0781-4.0742 0.10937 0.10938 4.0742-4.0742 0.11719 0.11328 4.0742-4.0742 0.11328 0.10938 4.0742-4.0742 0.11328 0.11328 4.0781-4.0742 0.10938 0.10938 4.0781-4.0742 0.11328 0.10937 4.0742-4.0742 0.11328 0.11328 4.0781-4.0742 0.10938 0.10938 4.0742-4.0742 0.11719 0.11328 4.0742-4.0742 0.11328 0.10938 4.0742-4.0742 0.11328 0.11328 4.0781-4.0781 0.10938 0.003906 0.15625c6.0508 1.1992 11.543 2.3086 16.465 3.3086l32.836 6.957c4.6602 1.0586 7.4453 1.7383 8.9922 2.1328zm228.38-30.598c-0.19141-6.875-0.5-18.328-2.4531-20.27-0.26563-0.035156-1.4531-0.10156-4.1797 1.0391-15.137 6.332-63.918 16.449-108.97 18.547-3.0703 0.14062-6.0898 0.27734-9.0312 0.40234-38.996 1.6875-64.758 2.8164-82.461 24.668-7.6523 9.4453-13.773 16.609-18.48 21.922 0.71094 0.058594-5.1133 4.7891 1.0508 6.3242 3.0391 0.76562 26.594-1.5859 26.594-1.5859 0.046875-0.011719 0.10547-0.015626 0.14453-0.015626 0.48828-0.035156 49.531-3.2383 89.676-8.0664 46.633-5.6016 72.609-14.18 86.188-20.383 1.9336-0.88672 3.7461-1.6875 5.4531-2.4453 13.926-6.1602 16.824-7.4414 16.473-20.137z"/>
  <use x="70" y="589.632812" xlink:href="#j"/>
  <use x="77.25" y="589.632812" xlink:href="#d"/>
  <use x="82.121094" y="589.632812" xlink:href="#a"/>
  <use x="88.820312" y="589.632812" xlink:href="#n"/>
  <use x="95.484375" y="589.632812" xlink:href="#c"/>
  <use x="100.207031" y="589.632812" xlink:href="#a"/>
  <use x="106.90625" y="589.632812" xlink:href="#e"/>
  <use x="117.417969" y="589.632812" xlink:href="#m"/>
  <use x="124.488281" y="589.632812" xlink:href="#l"/>
  <use x="134.367188" y="589.632812" xlink:href="#k"/>
  <use x="141.480469" y="589.632812" xlink:href="#i"/>
  <use x="144.867188" y="589.632812" xlink:href="#h"/>
  <use x="155.160156" y="589.632812" xlink:href="#b"/>
  <use x="161.945312" y="589.632812" xlink:href="#g"/>
  <use x="172.417969" y="589.632812" xlink:href="#j"/>
  <use x="179.664062" y="589.632812" xlink:href="#f"/>
  <use x="186.699219" y="589.632812" xlink:href="#i"/>
  <use x="190.082031" y="589.632812" xlink:href="#u"/>
  <use x="193.46875" y="589.632812" xlink:href="#e"/>
  <use x="70" y="599.511719" xlink:href="#t"/>
  <use x="74.296875" y="599.511719" xlink:href="#d"/>
  <use x="79.167969" y="599.511719" xlink:href="#b"/>
  <use x="85.957031" y="599.511719" xlink:href="#h"/>
  <use x="99.6875" y="599.511719" xlink:href="#c"/>
  <use x="104.410156" y="599.511719" xlink:href="#f"/>
  <use x="111.441406" y="599.511719" xlink:href="#a"/>
  <use x="121.578125" y="599.511719" xlink:href="#s"/>
  <use x="129.847656" y="599.511719" xlink:href="#b"/>
  <use x="136.632812" y="599.511719" xlink:href="#r"/>
  <use x="143.664062" y="599.511719" xlink:href="#g"/>
  <use x="154.136719" y="599.511719" xlink:href="#q"/>
  <use x="161.375" y="599.511719" xlink:href="#d"/>
  <use x="166.246094" y="599.511719" xlink:href="#b"/>
  <use x="173.035156" y="599.511719" xlink:href="#p"/>
  <use x="176.417969" y="599.511719" xlink:href="#a"/>
  <use x="183.117188" y="599.511719" xlink:href="#o"/>
  <use x="188.972656" y="599.511719" xlink:href="#c"/>
 </g>
</svg>
