<?xml version="1.0" encoding="UTF-8"?>
<svg width="30pt" height="30pt" version="1.1" viewBox="0 0 700 500" xmlns="http://www.w3.org/2000/svg" xmlns:xlink="http://www.w3.org/1999/xlink">
 <g>
  <path d="m603.29 516.71-83.887-83.883c43.191-47.516 66.086-110.04 63.789-174.21-2.293-64.168-29.594-124.9-76.066-169.21-46.473-44.309-108.43-68.688-172.64-67.922s-125.57 26.613-170.97 72.016c-45.402 45.402-71.25 106.77-72.016 170.97s23.613 126.16 67.922 172.64c44.309 46.473 105.04 73.773 169.21 76.066 64.172 2.2969 126.69-20.598 174.21-63.789l83.883 83.883zm-486.62-248.38c0-58.789 23.352-115.17 64.922-156.74 41.57-41.57 97.953-64.922 156.74-64.922 58.789 0 115.17 23.352 156.74 64.922 41.57 41.57 64.926 97.953 64.926 156.74 0 58.789-23.355 115.17-64.926 156.74-41.57 41.57-97.953 64.926-156.74 64.926-58.789 0-115.17-23.355-156.74-64.926-41.57-41.57-64.922-97.953-64.922-156.74z"/>
  <use x="70" y="735" xlink:href="#f"/>
  <use x="220.503906" y="735" xlink:href="#e"/>
  <use x="287.953125" y="735" xlink:href="#a"/>
  <use x="350.015625" y="735" xlink:href="#d"/>
  <use x="450.105469" y="735" xlink:href="#c"/>
  <use x="511.628906" y="735" xlink:href="#a"/>
  <use x="641.828125" y="735" xlink:href="#b"/>
 </g>
</svg>
